<svg id="Capa_1" enable-background="new 0 0 512 512" height="512" viewBox="0 0 512 512" width="512" xmlns="http://www.w3.org/2000/svg"><g><path d="m460.616 203.712h-86.839v300.788h93.942v-293.685c0-3.923-3.18-7.103-7.103-7.103z" fill="#fff5f5"/><path d="m417.214 203.712h-43.436v300.788h36.333v-293.685c0-3.923 3.18-7.103 7.103-7.103z" fill="#eee1dd"/><path d="m51.384 203.712h86.839v300.788h-93.942v-293.685c0-3.923 3.18-7.103 7.103-7.103z" fill="#fff5f5"/><path d="m87.717 203.712h-36.333c-3.923 0-7.103 3.18-7.103 7.103v293.685h36.333v-293.685c0-3.923 3.181-7.103 7.103-7.103z" fill="#eee1dd"/><g><path d="m256 72.167c-4.142 0-7.5-3.358-7.5-7.5v-57.167c0-4.142 3.358-7.5 7.5-7.5s7.5 3.358 7.5 7.5v57.167c0 4.142-3.358 7.5-7.5 7.5z" fill="#bed8fb"/></g><path d="m334.002 59.312h-156.004c-3.923 0-7.103 3.18-7.103 7.103v47.795h170.209v-47.795c.001-3.923-3.179-7.103-7.102-7.103z" fill="#fff5f5"/><path d="m214.332 59.312h-36.333c-3.923 0-7.103 3.18-7.103 7.103v47.795h36.333v-47.795c0-3.923 3.18-7.103 7.103-7.103z" fill="#eee1dd"/><path d="m368.674 112.21h-225.348c-3.923 0-7.103 3.18-7.103 7.103v385.187h239.555v-385.187c-.001-3.923-3.181-7.103-7.104-7.103z" fill="#938493"/><path d="m179.659 112.21h-36.333c-3.923 0-7.103 3.18-7.103 7.103v385.187h36.333v-385.187c0-3.923 3.18-7.103 7.103-7.103z" fill="#7b6c79"/><path d="m436.954 237.281h-30.412c-2.037 0-3.688 1.651-3.688 3.688v21.839c0 2.037 1.651 3.688 3.688 3.688h30.412c2.037 0 3.688-1.651 3.688-3.688v-21.839c0-2.037-1.651-3.688-3.688-3.688z" fill="#9dc6fb"/><path d="m421.748 262.808v-21.839c0-2.037 1.651-3.688 3.688-3.688h-18.894c-2.037 0-3.688 1.651-3.688 3.688v21.839c0 2.037 1.651 3.688 3.688 3.688h18.894c-2.037 0-3.688-1.651-3.688-3.688z" fill="#80b4fb"/><path d="m257 446.304h-54.847c-1.875 0-3.395 1.52-3.395 3.395v54.801h58.242z" fill="#bed8fb"/><path d="m230.274 446.304h-28.121c-1.875 0-3.395 1.52-3.395 3.395v54.801h28.121v-54.801c0-1.875 1.52-3.395 3.395-3.395z" fill="#9dc6fb"/><path d="m309.847 446.304h-53.847v58.196h57.241v-54.801c0-1.875-1.52-3.395-3.394-3.395z" fill="#ddeafb"/><g><path d="m475.688 512h-439.376c-4.142 0-7.5-3.358-7.5-7.5s3.358-7.5 7.5-7.5h439.376c4.142 0 7.5 3.358 7.5 7.5s-3.358 7.5-7.5 7.5z" fill="#ccf49f"/></g><path d="m436.954 297.316h-30.412c-2.037 0-3.688 1.651-3.688 3.688v21.839c0 2.037 1.651 3.688 3.688 3.688h30.412c2.037 0 3.688-1.651 3.688-3.688v-21.839c0-2.037-1.651-3.688-3.688-3.688z" fill="#9dc6fb"/><path d="m421.748 322.843v-21.839c0-2.037 1.651-3.688 3.688-3.688h-18.894c-2.037 0-3.688 1.651-3.688 3.688v21.839c0 2.037 1.651 3.688 3.688 3.688h18.894c-2.037 0-3.688-1.651-3.688-3.688z" fill="#80b4fb"/><path d="m436.954 357.35h-30.412c-2.037 0-3.688 1.651-3.688 3.688v21.839c0 2.037 1.651 3.688 3.688 3.688h30.412c2.037 0 3.688-1.651 3.688-3.688v-21.839c0-2.037-1.651-3.688-3.688-3.688z" fill="#9dc6fb"/><path d="m421.748 382.877v-21.839c0-2.037 1.651-3.688 3.688-3.688h-18.894c-2.037 0-3.688 1.651-3.688 3.688v21.839c0 2.037 1.651 3.688 3.688 3.688h18.894c-2.037 0-3.688-1.651-3.688-3.688z" fill="#80b4fb"/><path d="m436.954 417.384h-30.412c-2.037 0-3.688 1.651-3.688 3.688v21.839c0 2.037 1.651 3.688 3.688 3.688h30.412c2.037 0 3.688-1.651 3.688-3.688v-21.839c0-2.036-1.651-3.688-3.688-3.688z" fill="#9dc6fb"/><path d="m421.748 442.912v-21.839c0-2.037 1.651-3.688 3.688-3.688h-18.894c-2.037 0-3.688 1.651-3.688 3.688v21.839c0 2.037 1.651 3.688 3.688 3.688h18.894c-2.037 0-3.688-1.652-3.688-3.688z" fill="#80b4fb"/><path d="m105.458 237.281h-30.412c-2.037 0-3.688 1.651-3.688 3.688v21.839c0 2.037 1.651 3.688 3.688 3.688h30.412c2.037 0 3.688-1.651 3.688-3.688v-21.839c-.001-2.037-1.652-3.688-3.688-3.688z" fill="#9dc6fb"/><path d="m90.252 262.808v-21.839c0-2.037 1.651-3.688 3.688-3.688h-18.894c-2.037 0-3.688 1.651-3.688 3.688v21.839c0 2.037 1.651 3.688 3.688 3.688h18.894c-2.037 0-3.688-1.651-3.688-3.688z" fill="#80b4fb"/><path d="m105.458 297.316h-30.412c-2.037 0-3.688 1.651-3.688 3.688v21.839c0 2.037 1.651 3.688 3.688 3.688h30.412c2.037 0 3.688-1.651 3.688-3.688v-21.839c-.001-2.037-1.652-3.688-3.688-3.688z" fill="#9dc6fb"/><path d="m90.252 322.843v-21.839c0-2.037 1.651-3.688 3.688-3.688h-18.894c-2.037 0-3.688 1.651-3.688 3.688v21.839c0 2.037 1.651 3.688 3.688 3.688h18.894c-2.037 0-3.688-1.651-3.688-3.688z" fill="#80b4fb"/><path d="m105.458 357.35h-30.412c-2.037 0-3.688 1.651-3.688 3.688v21.839c0 2.037 1.651 3.688 3.688 3.688h30.412c2.037 0 3.688-1.651 3.688-3.688v-21.839c-.001-2.037-1.652-3.688-3.688-3.688z" fill="#9dc6fb"/><path d="m90.252 382.877v-21.839c0-2.037 1.651-3.688 3.688-3.688h-18.894c-2.037 0-3.688 1.651-3.688 3.688v21.839c0 2.037 1.651 3.688 3.688 3.688h18.894c-2.037 0-3.688-1.651-3.688-3.688z" fill="#80b4fb"/><path d="m105.458 417.384h-30.412c-2.037 0-3.688 1.651-3.688 3.688v21.839c0 2.037 1.651 3.688 3.688 3.688h30.412c2.037 0 3.688-1.651 3.688-3.688v-21.839c-.001-2.036-1.652-3.688-3.688-3.688z" fill="#9dc6fb"/><path d="m90.252 442.912v-21.839c0-2.037 1.651-3.688 3.688-3.688h-18.894c-2.037 0-3.688 1.651-3.688 3.688v21.839c0 2.037 1.651 3.688 3.688 3.688h18.894c-2.037 0-3.688-1.652-3.688-3.688z" fill="#80b4fb"/><path d="m204.678 147.23h-30.412c-2.037 0-3.688 1.651-3.688 3.688v21.839c0 2.037 1.651 3.688 3.688 3.688h30.412c2.037 0 3.688-1.651 3.688-3.688v-21.839c0-2.037-1.651-3.688-3.688-3.688z" fill="#9dc6fb"/><path d="m189.472 172.757v-21.839c0-2.037 1.651-3.688 3.688-3.688h-18.894c-2.037 0-3.688 1.651-3.688 3.688v21.839c0 2.037 1.651 3.688 3.688 3.688h18.894c-2.037 0-3.688-1.651-3.688-3.688z" fill="#80b4fb"/><path d="m204.678 207.264h-30.412c-2.037 0-3.688 1.651-3.688 3.688v21.839c0 2.037 1.651 3.688 3.688 3.688h30.412c2.037 0 3.688-1.651 3.688-3.688v-21.839c0-2.037-1.651-3.688-3.688-3.688z" fill="#9dc6fb"/><path d="m189.472 232.791v-21.839c0-2.037 1.651-3.688 3.688-3.688h-18.894c-2.037 0-3.688 1.651-3.688 3.688v21.839c0 2.037 1.651 3.688 3.688 3.688h18.894c-2.037 0-3.688-1.651-3.688-3.688z" fill="#80b4fb"/><path d="m204.678 267.298h-30.412c-2.037 0-3.688 1.651-3.688 3.688v21.839c0 2.037 1.651 3.688 3.688 3.688h30.412c2.037 0 3.688-1.651 3.688-3.688v-21.839c0-2.036-1.651-3.688-3.688-3.688z" fill="#9dc6fb"/><path d="m189.472 292.826v-21.839c0-2.037 1.651-3.688 3.688-3.688h-18.894c-2.037 0-3.688 1.651-3.688 3.688v21.839c0 2.037 1.651 3.688 3.688 3.688h18.894c-2.037 0-3.688-1.652-3.688-3.688z" fill="#80b4fb"/><path d="m204.678 327.333h-30.412c-2.037 0-3.688 1.651-3.688 3.688v21.839c0 2.037 1.651 3.688 3.688 3.688h30.412c2.037 0 3.688-1.651 3.688-3.688v-21.839c0-2.037-1.651-3.688-3.688-3.688z" fill="#9dc6fb"/><path d="m189.472 352.86v-21.839c0-2.037 1.651-3.688 3.688-3.688h-18.894c-2.037 0-3.688 1.651-3.688 3.688v21.839c0 2.037 1.651 3.688 3.688 3.688h18.894c-2.037 0-3.688-1.651-3.688-3.688z" fill="#80b4fb"/><path d="m204.678 387.367h-30.412c-2.037 0-3.688 1.651-3.688 3.688v21.839c0 2.037 1.651 3.688 3.688 3.688h30.412c2.037 0 3.688-1.651 3.688-3.688v-21.839c0-2.037-1.651-3.688-3.688-3.688z" fill="#9dc6fb"/><path d="m189.472 412.894v-21.839c0-2.037 1.651-3.688 3.688-3.688h-18.894c-2.037 0-3.688 1.651-3.688 3.688v21.839c0 2.037 1.651 3.688 3.688 3.688h18.894c-2.037 0-3.688-1.651-3.688-3.688z" fill="#80b4fb"/><path d="m271.206 147.23h-30.412c-2.037 0-3.688 1.651-3.688 3.688v21.839c0 2.037 1.651 3.688 3.688 3.688h30.412c2.037 0 3.688-1.651 3.688-3.688v-21.839c0-2.037-1.651-3.688-3.688-3.688z" fill="#9dc6fb"/><path d="m256 172.757v-21.839c0-2.037 1.651-3.688 3.688-3.688h-18.894c-2.037 0-3.688 1.651-3.688 3.688v21.839c0 2.037 1.651 3.688 3.688 3.688h18.894c-2.037 0-3.688-1.651-3.688-3.688z" fill="#80b4fb"/><path d="m271.206 207.264h-30.412c-2.037 0-3.688 1.651-3.688 3.688v21.839c0 2.037 1.651 3.688 3.688 3.688h30.412c2.037 0 3.688-1.651 3.688-3.688v-21.839c0-2.037-1.651-3.688-3.688-3.688z" fill="#9dc6fb"/><path d="m256 232.791v-21.839c0-2.037 1.651-3.688 3.688-3.688h-18.894c-2.037 0-3.688 1.651-3.688 3.688v21.839c0 2.037 1.651 3.688 3.688 3.688h18.894c-2.037 0-3.688-1.651-3.688-3.688z" fill="#80b4fb"/><path d="m271.206 267.298h-30.412c-2.037 0-3.688 1.651-3.688 3.688v21.839c0 2.037 1.651 3.688 3.688 3.688h30.412c2.037 0 3.688-1.651 3.688-3.688v-21.839c0-2.036-1.651-3.688-3.688-3.688z" fill="#9dc6fb"/><path d="m256 292.826v-21.839c0-2.037 1.651-3.688 3.688-3.688h-18.894c-2.037 0-3.688 1.651-3.688 3.688v21.839c0 2.037 1.651 3.688 3.688 3.688h18.894c-2.037 0-3.688-1.652-3.688-3.688z" fill="#80b4fb"/><path d="m271.206 327.333h-30.412c-2.037 0-3.688 1.651-3.688 3.688v21.839c0 2.037 1.651 3.688 3.688 3.688h30.412c2.037 0 3.688-1.651 3.688-3.688v-21.839c0-2.037-1.651-3.688-3.688-3.688z" fill="#9dc6fb"/><path d="m256 352.86v-21.839c0-2.037 1.651-3.688 3.688-3.688h-18.894c-2.037 0-3.688 1.651-3.688 3.688v21.839c0 2.037 1.651 3.688 3.688 3.688h18.894c-2.037 0-3.688-1.651-3.688-3.688z" fill="#80b4fb"/><path d="m271.206 387.367h-30.412c-2.037 0-3.688 1.651-3.688 3.688v21.839c0 2.037 1.651 3.688 3.688 3.688h30.412c2.037 0 3.688-1.651 3.688-3.688v-21.839c0-2.037-1.651-3.688-3.688-3.688z" fill="#9dc6fb"/><path d="m256 412.894v-21.839c0-2.037 1.651-3.688 3.688-3.688h-18.894c-2.037 0-3.688 1.651-3.688 3.688v21.839c0 2.037 1.651 3.688 3.688 3.688h18.894c-2.037 0-3.688-1.651-3.688-3.688z" fill="#80b4fb"/><path d="m337.734 147.23h-30.412c-2.037 0-3.688 1.651-3.688 3.688v21.839c0 2.037 1.651 3.688 3.688 3.688h30.412c2.037 0 3.688-1.651 3.688-3.688v-21.839c-.001-2.037-1.652-3.688-3.688-3.688z" fill="#9dc6fb"/><path d="m322.528 172.757v-21.839c0-2.037 1.651-3.688 3.688-3.688h-18.894c-2.037 0-3.688 1.651-3.688 3.688v21.839c0 2.037 1.651 3.688 3.688 3.688h18.894c-2.037 0-3.688-1.651-3.688-3.688z" fill="#80b4fb"/><path d="m337.734 207.264h-30.412c-2.037 0-3.688 1.651-3.688 3.688v21.839c0 2.037 1.651 3.688 3.688 3.688h30.412c2.037 0 3.688-1.651 3.688-3.688v-21.839c-.001-2.037-1.652-3.688-3.688-3.688z" fill="#9dc6fb"/><path d="m322.528 232.791v-21.839c0-2.037 1.651-3.688 3.688-3.688h-18.894c-2.037 0-3.688 1.651-3.688 3.688v21.839c0 2.037 1.651 3.688 3.688 3.688h18.894c-2.037 0-3.688-1.651-3.688-3.688z" fill="#80b4fb"/><path d="m337.734 267.298h-30.412c-2.037 0-3.688 1.651-3.688 3.688v21.839c0 2.037 1.651 3.688 3.688 3.688h30.412c2.037 0 3.688-1.651 3.688-3.688v-21.839c-.001-2.036-1.652-3.688-3.688-3.688z" fill="#9dc6fb"/><path d="m322.528 292.826v-21.839c0-2.037 1.651-3.688 3.688-3.688h-18.894c-2.037 0-3.688 1.651-3.688 3.688v21.839c0 2.037 1.651 3.688 3.688 3.688h18.894c-2.037 0-3.688-1.652-3.688-3.688z" fill="#80b4fb"/><path d="m337.734 327.333h-30.412c-2.037 0-3.688 1.651-3.688 3.688v21.839c0 2.037 1.651 3.688 3.688 3.688h30.412c2.037 0 3.688-1.651 3.688-3.688v-21.839c-.001-2.037-1.652-3.688-3.688-3.688z" fill="#9dc6fb"/><path d="m322.528 352.86v-21.839c0-2.037 1.651-3.688 3.688-3.688h-18.894c-2.037 0-3.688 1.651-3.688 3.688v21.839c0 2.037 1.651 3.688 3.688 3.688h18.894c-2.037 0-3.688-1.651-3.688-3.688z" fill="#80b4fb"/><path d="m337.734 387.367h-30.412c-2.037 0-3.688 1.651-3.688 3.688v21.839c0 2.037 1.651 3.688 3.688 3.688h30.412c2.037 0 3.688-1.651 3.688-3.688v-21.839c-.001-2.037-1.652-3.688-3.688-3.688z" fill="#9dc6fb"/><path d="m322.528 412.894v-21.839c0-2.037 1.651-3.688 3.688-3.688h-18.894c-2.037 0-3.688 1.651-3.688 3.688v21.839c0 2.037 1.651 3.688 3.688 3.688h18.894c-2.037 0-3.688-1.651-3.688-3.688z" fill="#80b4fb"/></g></svg>