<svg height="512" viewBox="0 0 64 64" width="512" xmlns="http://www.w3.org/2000/svg"><g id="Car_park" data-name="Car park"><path d="m53.23 37.59.77 5.41h-30l.77-5.41a10.011 10.011 0 0 1 9.9-8.59h8.66a10.011 10.011 0 0 1 9.9 8.59z" fill="#a7a9ac"/><path d="m55.39 57h-32.78a4.008 4.008 0 0 1 -3.96-4.57l.86-6a4 4 0 0 1 3.96-3.43h31.06a4 4 0 0 1 3.96 3.43l.86 6a4.008 4.008 0 0 1 -3.96 4.57z" fill="#006df0"/><path d="m59.35 52.43-.86-6a4 4 0 0 0 -3.96-3.43h-10.83a35.912 35.912 0 0 1 -23.914 12.8 3.949 3.949 0 0 0 2.824 1.2h32.78a4.008 4.008 0 0 0 3.96-4.57z" fill="#005fd2"/><path d="m54 43-.77-5.41a9.987 9.987 0 0 0 -3.158-5.959 35.9 35.9 0 0 1 -6.372 11.369z" fill="#929497"/><path d="m23.25 37.72.75 5.28h-1l-2-2h-2a2.006 2.006 0 0 1 -2-2v-1a2.006 2.006 0 0 1 2-2h2.27a2.01 2.01 0 0 1 1.98 1.72z" fill="#004fac"/><path d="m61 38v1a2.006 2.006 0 0 1 -2 2h-2l-2 2h-1l.75-5.28a2.01 2.01 0 0 1 1.98-1.72h2.27a2.006 2.006 0 0 1 2 2z" fill="#004fac"/><path d="m31 57v2a2.006 2.006 0 0 1 -2 2h-4a2.006 2.006 0 0 1 -2-2v-2z" fill="#58595b"/><path d="m55 57v2a2.006 2.006 0 0 1 -2 2h-4a2.006 2.006 0 0 1 -2-2v-2z" fill="#58595b"/><circle cx="51" cy="50" fill="#f1f2f2" r="2"/><path d="m45 49-1 3h-10l-1-3z" fill="#ffcd00"/><circle cx="27" cy="50" fill="#f1f2f2" r="2"/><path d="m14 56v5h-7v-5a2.006 2.006 0 0 1 2-2h3a2.006 2.006 0 0 1 2 2z" fill="#58595b"/><path d="m9 25h3v29h-3z" fill="#a7a9ac"/><path d="m3 7h16v18h-16z" fill="#ffcd00"/><g fill="#231f20"><path d="m27 47a3 3 0 1 0 3 3 3 3 0 0 0 -3-3zm0 4a1 1 0 1 1 1-1 1 1 0 0 1 -1 1z"/><path d="m51 47a3 3 0 1 0 3 3 3 3 0 0 0 -3-3zm0 4a1 1 0 1 1 1-1 1 1 0 0 1 -1 1z"/><path d="m59 35h-2.266a3.011 3.011 0 0 0 -2.669 1.652 11.053 11.053 0 0 0 -10.738-8.652h-8.654a11.053 11.053 0 0 0 -10.738 8.652 3.011 3.011 0 0 0 -2.669-1.652h-2.266a3 3 0 0 0 -3 3v1a3 3 0 0 0 3 3h1.586l.585.585a5 5 0 0 0 -2.651 3.707l-.857 6a4.994 4.994 0 0 0 4.337 5.667v1.041a3 3 0 0 0 3 3h4a3 3 0 0 0 3-3v-1h14v1a3 3 0 0 0 3 3h4a3 3 0 0 0 3-3v-1.041a4.994 4.994 0 0 0 4.337-5.667l-.857-6a5 5 0 0 0 -2.651-3.707l.585-.585h1.586a3 3 0 0 0 3-3v-1a3 3 0 0 0 -3-3zm-33.237 2.728a9.045 9.045 0 0 1 8.91-7.728h8.654a9.045 9.045 0 0 1 8.91 7.728l.61 4.272h-27.694zm-6.763 2.272a1 1 0 0 1 -1-1v-1a1 1 0 0 1 1-1h2.266a1 1 0 0 1 .989.859l.5 3.479-1.045-1.045a1 1 0 0 0 -.71-.293zm11 19a1 1 0 0 1 -1 1h-4a1 1 0 0 1 -1-1v-1h6zm24 0a1 1 0 0 1 -1 1h-4a1 1 0 0 1 -1-1v-1h6zm4.358-6.424a3 3 0 0 1 -2.97 3.424h-32.776a3 3 0 0 1 -2.97-3.424l.857-6a3.015 3.015 0 0 1 2.97-2.576h31.062a3.015 3.015 0 0 1 2.97 2.576zm1.642-13.576a1 1 0 0 1 -1 1h-2a1 1 0 0 0 -.707.293l-1.045 1.045.5-3.48a1 1 0 0 1 .986-.858h2.266a1 1 0 0 1 1 1z"/><path d="m45 48h-12a1 1 0 0 0 -.949 1.316l1 3a1 1 0 0 0 .949.684h10a1 1 0 0 0 .949-.684l1-3a1 1 0 0 0 -.949-1.316zm-1.721 3h-8.558l-.334-1h9.226z"/><path d="m13 53.184v-27.184h6a1 1 0 0 0 1-1v-18a1 1 0 0 0 -1-1h-16a1 1 0 0 0 -1 1v18a1 1 0 0 0 1 1h5v27.184a3 3 0 0 0 -2 2.816v5a1 1 0 0 0 1 1h7a1 1 0 0 0 1-1v-5a3 3 0 0 0 -2-2.816zm-9-45.184h14v16h-14zm7 18v27h-1v-27zm2 34h-5v-4a1 1 0 0 1 1-1h3a1 1 0 0 1 1 1z"/><path d="m10 21v-3h2a4 4 0 0 0 0-8h-3a1 1 0 0 0 -1 1v10a1 1 0 0 0 2 0zm0-9h2a2 2 0 0 1 0 4h-2z"/><path d="m34.707 32.293a1 1 0 0 0 -1.414 0l-5 5a1 1 0 1 0 1.414 1.414l5-5a1 1 0 0 0 0-1.414z"/><path d="m38.293 32.293-5 5a1 1 0 1 0 1.414 1.414l5-5a1 1 0 0 0 -1.414-1.414z"/></g></g></svg>