<?xml version="1.0" encoding="iso-8859-1"?>
<!-- Generator: Adobe Illustrator 19.0.0, SVG Export Plug-In . SVG Version: 6.00 Build 0)  -->
<svg version="1.1" id="Capa_1" xmlns="http://www.w3.org/2000/svg" xmlns:xlink="http://www.w3.org/1999/xlink" x="0px" y="0px"
	 viewBox="0 0 512.001 512.001" style="enable-background:new 0 0 512.001 512.001;" xml:space="preserve">
<circle style="fill:#FC4747;" cx="256" cy="256" r="256"/>
<path style="fill:#E03636;" d="M512,256.001c0,141.383-114.617,256-256,256c-92.083,0-172.812-48.62-217.911-121.597
	c41.97,30.101,93.432,47.828,149.021,47.828c141.393,0,256-114.618,256-256c0-49.29-13.928-95.336-38.079-134.393
	C469.803,94.287,512,170.218,512,256.001z"/>
<circle style="fill:#EFEFEF;" cx="256" cy="256" r="197.34"/>
<path style="fill:#E0E0E0;" d="M453.344,256.003c0,108.986-88.356,197.343-197.343,197.343
	c-75.324,0-140.796-42.207-174.047-104.261c33.107,25.139,74.408,40.056,119.188,40.056c108.987,0,197.343-88.357,197.343-197.343
	c0-33.663-8.431-65.359-23.296-93.092C422.677,134.745,453.344,191.786,453.344,256.003z"/>
<path style="fill:#232323;" d="M171.234,132.482c0-6.707,5.962-12.669,15.277-12.669h72.657c45.831,0,81.601,21.983,81.601,81.973
	v2.981c0,59.616-36.888,82.346-83.836,82.346H210.73v92.033c0,8.569-9.688,13.041-19.748,13.041
	c-9.688,0-19.748-4.472-19.748-13.041V132.482z M210.73,154.837v100.977h46.203c27.573,0,44.34-15.649,44.34-48.438v-4.472
	c0-32.789-16.767-48.066-44.34-48.066L210.73,154.837L210.73,154.837z"/>
<path style="fill:#FC4747;" d="M106.05,54.635l351.779,351.779c1.852,1.852,2.009,4.791,0.389,6.849
	c-13.257,16.845-28.578,31.99-45.598,45.032c-2.059,1.578-4.963,1.405-6.798-0.429L54.585,106.639
	c-2.002-2.001-2.011-5.243-0.022-7.257l44.185-44.725C100.755,52.626,104.031,52.616,106.05,54.635z"/>
<g>
</g>
<g>
</g>
<g>
</g>
<g>
</g>
<g>
</g>
<g>
</g>
<g>
</g>
<g>
</g>
<g>
</g>
<g>
</g>
<g>
</g>
<g>
</g>
<g>
</g>
<g>
</g>
<g>
</g>
</svg>
